<?xml version="1.0" encoding="utf-8"?>
<!-- Generator: Adobe Illustrator 15.0.0, SVG Export Plug-In  -->
<!DOCTYPE svg PUBLIC "-//W3C//DTD SVG 1.1//EN" "http://www.w3.org/Graphics/SVG/1.1/DTD/svg11.dtd" [
	<!ENTITY ns_flows "http://ns.adobe.com/Flows/1.0/">
]>
<svg version="1.1"
	 xmlns="http://www.w3.org/2000/svg" xmlns:xlink="http://www.w3.org/1999/xlink" xmlns:a="http://ns.adobe.com/AdobeSVGViewerExtensions/3.0/"
	 x="0px" y="0px" width="514px" height="262px" viewBox="231.5 233 514 262" enable-background="new 231.5 233 514 262"
	 xml:space="preserve">
<defs>
</defs>
<rect display="none" fill="#6ABBCE" width="980" height="1036"/>
<g opacity="0.47">
	<defs>
		<polyline id="SVGID_1_" opacity="0.47" points="255.5,222.6 179.6,222.6 179.6,671.5 745.1,671.5 745.1,222.6 255.5,222.6 		"/>
	</defs>
	<clipPath id="SVGID_2_">
		<use xlink:href="#SVGID_1_"  overflow="visible"/>
	</clipPath>
	<g clip-path="url(#SVGID_2_)"  a:adobe-blending-mode="colorBurn">
		<polygon fill="#DCDDDF"  a:adobe-blending-mode="normal" points="578.3,335.3 534,356.4 515.9,418.4 574.5,374.1 		"/>
		<polygon fill="#EFEEEC"  a:adobe-blending-mode="normal" points="578.3,335.3 534,356.4 459,347.4 488.4,285.9 		"/>
		<polygon fill="#EFEEEC"  a:adobe-blending-mode="normal" points="581.3,511.7 608.1,466.4 536.6,457.1 464.6,562.8 		"/>
		<polygon fill="#CBCCCE"  a:adobe-blending-mode="normal" points="424.9,505.3 507.2,445.3 348.8,514 		"/>
		<polygon fill="#EFEEEC"  a:adobe-blending-mode="normal" points="481.7,445.3 507.2,445.3 348.8,514 		"/>
		<polygon fill="#CBCCCE"  a:adobe-blending-mode="normal" points="481.7,445.3 507.2,445.3 515.9,418.4 459,347.4 		"/>
		<polygon fill="#E9E9EA"  a:adobe-blending-mode="normal" points="534,356.4 515.9,418.4 459,347.4 		"/>
		
			<linearGradient id="SVGID_3_" gradientUnits="userSpaceOnUse" x1="596.6748" y1="547.8105" x2="687.9033" y2="547.8105" gradientTransform="matrix(6.210000e-002 -0.9981 0.9981 6.210000e-002 8.3158 1022.0745)">
			<stop  offset="5.617980e-003" style="stop-color:#D1D2D2"/>
			<stop  offset="1" style="stop-color:#DCDBDB"/>
			<a:midPointStop  offset="5.617980e-003" style="stop-color:#D1D2D2"/>
			<a:midPointStop  offset="0.5" style="stop-color:#D1D2D2"/>
			<a:midPointStop  offset="1" style="stop-color:#DCDBDB"/>
		</linearGradient>
		<polygon fill="url(#SVGID_3_)"  a:adobe-blending-mode="normal" points="574.5,374.1 653.4,373 622.5,420.4 536.6,457.1 		"/>
		<polygon fill="#E0E1E0"  a:adobe-blending-mode="normal" points="578.3,335.3 653.4,373 574.5,374.1 		"/>
		<polygon fill="#EFEEEC"  a:adobe-blending-mode="normal" points="424.9,505.3 440.9,565.2 339.2,611.7 		"/>
		<polygon fill="#DCDDDF"  a:adobe-blending-mode="normal" points="424.9,505.3 348.8,514 339.2,611.7 		"/>
		<polygon fill="#D5D6D5"  a:adobe-blending-mode="normal" points="440.9,565.2 454.2,613.3 339.2,611.7 		"/>
		<polygon fill="#DCDDDF"  a:adobe-blending-mode="normal" points="440.9,565.2 454.2,613.3 464.6,562.8 		"/>
		<polygon fill="#E9E9EA"  a:adobe-blending-mode="normal" points="555.5,629.8 440.9,671.5 580.1,668.5 624.1,634 		"/>
		<polygon fill="#E9E9EA"  a:adobe-blending-mode="normal" points="440.9,565.2 464.6,562.8 424.9,505.3 		"/>
		<polygon fill="#C7C6C6"  a:adobe-blending-mode="normal" points="581.3,511.7 610.9,546.4 635.9,502.8 		"/>
		<polygon fill="#CFCFCE"  a:adobe-blending-mode="normal" points="555.5,629.8 624.1,634 527.8,552.1 		"/>
		<polygon fill="#E0E1E0"  a:adobe-blending-mode="normal" points="555.5,629.8 527.8,552.1 464.6,562.8 		"/>
		<polygon fill="#EAEAEA"  a:adobe-blending-mode="normal" points="581.3,511.7 610.9,546.4 527.8,552.1 464.6,562.8 		"/>
		<polygon fill="#CFCFCE"  a:adobe-blending-mode="normal" points="581.3,511.7 608.1,466.4 622.5,420.4 635.9,502.8 		"/>
		<polygon fill="#C7C6C6"  a:adobe-blending-mode="normal" points="608.1,466.4 536.6,457.1 622.5,420.4 		"/>
		<polygon fill="#CBCCCE"  a:adobe-blending-mode="normal" points="555.5,629.8 454.2,613.3 464.6,562.8 		"/>
		<polygon fill="#D5D6D5"  a:adobe-blending-mode="normal" points="555.5,629.8 440.9,671.5 454.2,613.3 		"/>
		<polygon fill="#DCDDDF"  a:adobe-blending-mode="normal" points="424.9,505.3 536.6,457.1 464.6,562.8 		"/>
		<polygon fill="#E9E9EA"  a:adobe-blending-mode="normal" points="507.2,445.3 536.6,457.1 424.9,505.3 		"/>
		<polygon fill="#E0E1E0"  a:adobe-blending-mode="normal" points="515.9,418.4 536.6,457.1 507.2,445.3 		"/>
		<polygon fill="#D5D6D5"  a:adobe-blending-mode="normal" points="574.5,374.1 536.6,457.1 515.9,418.4 		"/>
		<polygon fill="#D5D6D5"  a:adobe-blending-mode="normal" points="536.6,457.1 581.3,511.7 464.6,562.8 		"/>
		<polygon fill="#E9E9EA"  a:adobe-blending-mode="normal" points="574.5,374.1 622.5,420.4 536.6,457.1 		"/>
		<polygon fill="#E0E1E0"  a:adobe-blending-mode="normal" points="534,356.4 574.5,374.1 515.9,418.4 		"/>
		<polygon fill="#D5D6D5"  a:adobe-blending-mode="normal" points="488.4,285.9 534,356.4 578.3,335.3 		"/>
		<polygon fill="#D5D6D5"  a:adobe-blending-mode="normal" points="459,347.4 507.2,445.3 515.9,418.4 		"/>
		<polygon fill="#E1E0E2"  a:adobe-blending-mode="normal" points="454.2,613.3 339.2,611.7 440.9,671.5 		"/>
		<polygon fill="#EEEDEB"  a:adobe-blending-mode="normal" points="339.2,611.7 267.6,569 348.8,514 		"/>
		<polygon fill="#E9E9EA"  a:adobe-blending-mode="normal" points="481.7,445.3 348.8,514 282.8,362.1 		"/>
		<polygon fill="#D5D6D5"  a:adobe-blending-mode="normal" points="459,347.4 282.8,362.1 481.7,445.3 		"/>
		<polygon fill="#D5D6D5"  a:adobe-blending-mode="normal" points="267.6,569 348.8,514 282.8,362.1 		"/>
		<polygon fill="#E1E0E2"  a:adobe-blending-mode="normal" points="459,347.4 312,265.9 282.8,362.1 		"/>
		<polygon fill="#C3C3C7"  a:adobe-blending-mode="normal" points="488.4,285.9 312,265.9 459,347.4 		"/>
		<polygon fill="#E1E0E2"  a:adobe-blending-mode="normal" points="578.3,335.3 586.3,236.7 488.4,285.9 		"/>
		<polygon fill="#D5D6D5"  a:adobe-blending-mode="normal" points="312,265.9 586.3,236.7 488.4,285.9 		"/>
		<polygon fill="#D5D6D5"  a:adobe-blending-mode="normal" points="586.3,236.7 653.4,373 578.3,335.3 		"/>
		<polygon fill="#D5D6D5"  a:adobe-blending-mode="normal" points="622.5,420.4 635.9,502.8 673.9,466.9 		"/>
		<polygon fill="#E9E9EA"  a:adobe-blending-mode="normal" points="610.9,546.4 673.1,524 635.9,502.8 		"/>
		<polygon fill="#D5D6D5"  a:adobe-blending-mode="normal" points="527.8,552.1 624.1,634 664.8,565.5 		"/>
		<polygon fill="#E9E9EA"  a:adobe-blending-mode="normal" points="610.9,546.4 664.8,565.5 527.8,552.1 		"/>
		<polygon fill="#D5D6D5"  a:adobe-blending-mode="normal" points="673.1,524 664.8,565.5 610.9,546.4 		"/>
		<polygon fill="#CFCFCE"  a:adobe-blending-mode="normal" points="673.9,466.9 635.9,502.8 673.1,524 		"/>
		<polygon fill="#E9E9EA"  a:adobe-blending-mode="normal" points="653.4,373 673.9,466.9 622.5,420.4 		"/>
		<polygon fill="#E0E1E0"  a:adobe-blending-mode="normal" points="555.5,629.8 580.1,668.5 440.9,671.5 		"/>
		<polygon fill="#E9E9EA"  a:adobe-blending-mode="normal" points="608.1,466.4 635.9,502.8 581.3,511.7 		"/>
		<polygon fill="#E1E0E2"  a:adobe-blending-mode="normal" points="673.9,466.9 720.4,377.1 653.4,373 		"/>
		<polygon fill="#CBCCCE"  a:adobe-blending-mode="normal" points="696.7,258.6 720.4,377.1 653.4,373 		"/>
		<polygon fill="#E1E0E2"  a:adobe-blending-mode="normal" points="673.9,466.9 728.6,580.3 673.1,524 		"/>
		<polygon fill="#CBCCCE"  a:adobe-blending-mode="normal" points="720.4,377.1 720.6,378.4 728.6,580.3 673.9,466.9 		"/>
		<polygon fill="#CBCCCE"  a:adobe-blending-mode="normal" points="728.6,580.3 664.8,565.5 673.1,524 		"/>
		<polygon fill="#E9E9EA"  a:adobe-blending-mode="normal" points="728.6,580.3 624.1,634 664.8,565.5 		"/>
		<polygon fill="#D5D6D5"  a:adobe-blending-mode="normal" points="580.1,668.5 660.8,676 624.1,634 		"/>
		<polygon fill="#D5D6D5"  a:adobe-blending-mode="normal" points="728.6,580.3 660.8,676 624.1,634 		"/>
		<polygon fill="#E9E9EA"  a:adobe-blending-mode="normal" points="339.2,611.7 330.6,701.3 440.9,671.5 		"/>
		<polygon fill="#D5D6D5"  a:adobe-blending-mode="normal" points="267.6,569 330.6,701.3 339.2,611.7 		"/>
		<polygon fill="#E0E1E0"  a:adobe-blending-mode="normal" points="696.7,258.6 648.2,302.8 653.4,373 		"/>
		<polygon fill="#CBCCCE"  a:adobe-blending-mode="normal" points="586.3,236.7 648.2,302.8 653.4,373 		"/>
		<polygon fill="#E9E9EA"  a:adobe-blending-mode="normal" points="696.7,258.6 648.2,302.8 586.3,236.7 		"/>
		<polygon fill="#DCDDDF"  a:adobe-blending-mode="normal" points="330.6,701.3 437.7,748.7 440.9,671.5 		"/>
		<polygon fill="#DCDDDF"  a:adobe-blending-mode="normal" points="580.1,668.5 513.3,740.6 440.9,671.5 		"/>
		<polygon fill="#EEEDEB"  a:adobe-blending-mode="normal" points="660.8,676 513.3,740.6 580.1,668.5 		"/>
		<polygon fill="#E9E9EA"  a:adobe-blending-mode="normal" points="437.7,748.7 513.3,740.6 440.9,671.5 		"/>
		<polygon fill="#DCDDDF"  a:adobe-blending-mode="normal" points="527.8,552.1 581.3,511.7 464.6,562.8 		"/>
		<path fill="#232323"  a:adobe-blending-mode="normal" d="M344.9,419.7l0-0.2l0.2,0.1l-0.1,0.2L344.9,419.7z"/>
		<rect x="310.4" y="302.8" fill="none"  a:adobe-blending-mode="normal" width="351.5" height="351.5"/>
	</g>
</g>
<linearGradient id="SVGID_4_" gradientUnits="userSpaceOnUse" x1="-834.7456" y1="186.0107" x2="-834.7456" y2="295.3831" gradientTransform="matrix(0.9702 -0.2422 0.2422 0.9702 1303.1608 49.2846)">
	<stop  offset="0" style="stop-color:#7E3E1B"/>
	<stop  offset="1" style="stop-color:#40170B"/>
	<a:midPointStop  offset="0" style="stop-color:#7E3E1B"/>
	<a:midPointStop  offset="0.5" style="stop-color:#7E3E1B"/>
	<a:midPointStop  offset="1" style="stop-color:#40170B"/>
</linearGradient>
<path fill="url(#SVGID_4_)" d="M535.4,428.4c-36.4,9.1-57.4,47.3-46.6,84.6c6,20.9,25.2,31.7,42.8,35.4c17.6,3.8,78.8,0.4,88.1-31.8
	C633.6,468.5,592.1,414.2,535.4,428.4z"/>
<linearGradient id="SVGID_5_" gradientUnits="userSpaceOnUse" x1="-598.002" y1="197.7168" x2="-598.002" y2="222.825" gradientTransform="matrix(0.9824 -0.1868 0.1868 0.9824 1103.2416 212.2415)">
	<stop  offset="0" style="stop-color:#FFE0B3"/>
	<stop  offset="1" style="stop-color:#FCC491"/>
	<a:midPointStop  offset="0" style="stop-color:#FFE0B3"/>
	<a:midPointStop  offset="0.5" style="stop-color:#FFE0B3"/>
	<a:midPointStop  offset="1" style="stop-color:#FCC491"/>
</linearGradient>
<path fill="url(#SVGID_5_)" d="M593.7,484.1c-2.7-14.9-7.2-26.8-24.7-32.3c-28.8-9-53.1-1.8-61.5,11.4c-8.1,12.8-8.5,23.3-5.6,38.1
	c3.2,16.1,7.7,26.8,12.5,31.6c7.8,7.9,22.6,15.8,36.6,12.8c22.7-5.7,27.3-12.9,36.8-24.7C595.2,511.8,596.7,500.1,593.7,484.1z"/>
<path fill="#EEB97D" d="M587.3,486c-13.1,15.4-23.8-29.4-37.1-27.8c-3.2,11.3-15.2,28.7-33.5,35.4c9.4-5.8,19.6-18.9,19.8-25.9
	c-6.7,7.6-23.9,26.8-35.4,28.6c-6-34.5,3.3-60.1,49.4-64c46-3.8,47.1,33.3,47.6,47.8C595.8,479.7,592.9,479.4,587.3,486z"/>
<path fill="#7E1416" d="M541.3,476.2c3.8-3,11.9-4.5,15.7-4.3C552.4,470,543.7,471.2,541.3,476.2z"/>
<path fill="#7E1416" d="M525.2,480.6c-4.3-2.2-12.5-2.2-16.2-1.2C513.2,476.6,522,476.1,525.2,480.6z"/>
<linearGradient id="SVGID_6_" gradientUnits="userSpaceOnUse" x1="-721.9526" y1="686.1201" x2="-708.7098" y2="694.9487" gradientTransform="matrix(0.9919 -0.1272 0.1272 0.9919 1222.2776 -280.0097)">
	<stop  offset="0" style="stop-color:#FFE0B3"/>
	<stop  offset="1" style="stop-color:#FCC491"/>
	<a:midPointStop  offset="0" style="stop-color:#FFE0B3"/>
	<a:midPointStop  offset="0.5" style="stop-color:#FFE0B3"/>
	<a:midPointStop  offset="1" style="stop-color:#FCC491"/>
</linearGradient>
<path fill="url(#SVGID_6_)" d="M589.2,480.7l3.4,26.7c6.7,0.1,17.4-2.8,15.7-15.6C606.7,479,595.7,478.2,589.2,480.7z"/>
<linearGradient id="SVGID_7_" gradientUnits="userSpaceOnUse" x1="-712.502" y1="687.7021" x2="-719.6343" y2="687.4169" gradientTransform="matrix(0.9919 -0.1272 0.1272 0.9919 1222.2776 -280.0097)">
	<stop  offset="0" style="stop-color:#E6B475"/>
	<stop  offset="1" style="stop-color:#FCC491"/>
	<a:midPointStop  offset="0" style="stop-color:#E6B475"/>
	<a:midPointStop  offset="0.5" style="stop-color:#E6B475"/>
	<a:midPointStop  offset="1" style="stop-color:#FCC491"/>
</linearGradient>
<path fill="url(#SVGID_7_)" d="M591.2,485.4l2.2,16.8c4.2,0.1,11-1.7,9.9-9.9C602.2,484.4,595.3,483.9,591.2,485.4z"/>
<linearGradient id="SVGID_8_" gradientUnits="userSpaceOnUse" x1="-839.4478" y1="183.1821" x2="-839.4478" y2="305.9045" gradientTransform="matrix(0.9702 -0.2422 0.2422 0.9702 1303.1608 49.2846)">
	<stop  offset="0" style="stop-color:#7E3E1B"/>
	<stop  offset="1" style="stop-color:#40170B"/>
	<a:midPointStop  offset="0" style="stop-color:#7E3E1B"/>
	<a:midPointStop  offset="0.5" style="stop-color:#7E3E1B"/>
	<a:midPointStop  offset="1" style="stop-color:#40170B"/>
</linearGradient>
<path fill="url(#SVGID_8_)" d="M587.3,486c-9.2,11-24.6-32.9-37.9-31.3c-3.2,11.3-15.6,29.8-33.8,36.4c9.4-5.8,19.6-18.9,19.8-25.9
	c-6.7,7.6-30.1,28.2-41.5,30c-6-34.5,9.4-61.5,55.5-65.3c46-3.8,48.7,35.6,49.2,50.1C596.3,479.6,592.8,479.3,587.3,486z"/>
<linearGradient id="SVGID_9_" gradientUnits="userSpaceOnUse" x1="-822.5234" y1="-722.9751" x2="-808.2109" y2="-686.7728" gradientTransform="matrix(0.9095 -0.4157 0.4157 0.9095 1619.1592 762.4676)">
	<stop  offset="0" style="stop-color:#8C4A20"/>
	<stop  offset="1" style="stop-color:#5C280D"/>
	<a:midPointStop  offset="0" style="stop-color:#8C4A20"/>
	<a:midPointStop  offset="0.5" style="stop-color:#8C4A20"/>
	<a:midPointStop  offset="1" style="stop-color:#5C280D"/>
</linearGradient>
<path fill="url(#SVGID_9_)" d="M588.8,436.2c0.8,1.5,1.4,3.5,0.3,5.8c-0.3,0.5-0.6,1.1-1,1.7c-5,6.7-20.6,14.5-28.7,16.5
	c6.3,6.7,12.7,17.8,18.3,23.7c6.3,0.2,14.5-3.6,20.1-8.3c0.2-0.2,0.4-0.3,0.6-0.5c5.1-4.5,10.5-12.3,12-17.5
	C604.8,449,597.5,441.7,588.8,436.2z"/>
<linearGradient id="SVGID_10_" gradientUnits="userSpaceOnUse" x1="-875.917" y1="-745.6816" x2="-897.5397" y2="-708.267" gradientTransform="matrix(0.9095 -0.4157 0.4157 0.9095 1619.1592 762.4676)">
	<stop  offset="0" style="stop-color:#8C4A20"/>
	<stop  offset="1" style="stop-color:#612B0E"/>
	<a:midPointStop  offset="0" style="stop-color:#8C4A20"/>
	<a:midPointStop  offset="0.5" style="stop-color:#8C4A20"/>
	<a:midPointStop  offset="1" style="stop-color:#612B0E"/>
</linearGradient>
<path fill="url(#SVGID_10_)" d="M510.5,442.6c-0.1-0.6-0.1-1.3,0-1.8c-12,9.7-20.2,23.5-23.2,38.9c1.3,4.1,3.4,7.2,5.6,8.7
	c0,0,0,0,0,0c2.8,1.9,7.9,2.4,12.6,1.6c9.9-6.1,21.4-16.1,27.5-22.3C522.7,466.5,511.3,451.9,510.5,442.6z"/>
<path fill="#7E1416" d="M563.1,492.4c1.7-0.1,2.5-0.2,3.6-0.6c-0.7,1.3-2.2,2.2-3.4,2.2C562.1,494,561.9,492.5,563.1,492.4z"/>
<linearGradient id="SVGID_11_" gradientUnits="userSpaceOnUse" x1="5255.4824" y1="1062.2432" x2="5255.4824" y2="1045.9662" gradientTransform="matrix(-0.9922 0.1242 0.1242 0.9922 5638.4336 -1202.1024)">
	<stop  offset="0" style="stop-color:#FFE0B3"/>
	<stop  offset="1" style="stop-color:#7E1416"/>
	<a:midPointStop  offset="0" style="stop-color:#FFE0B3"/>
	<a:midPointStop  offset="0.5" style="stop-color:#FFE0B3"/>
	<a:midPointStop  offset="1" style="stop-color:#7E1416"/>
</linearGradient>
<path fill="url(#SVGID_11_)" d="M556,505.5c5-0.6,8.6-5.2,8-10.3c-0.6-5-5.2-8.6-10.3-8c-5,0.6-8.6,5.2-8,10.3
	C546.4,502.5,551,506.1,556,505.5L556,505.5z"/>
<circle fill="#FFFFFF" cx="554.8" cy="496.3" r="8.2"/>
<linearGradient id="SVGID_12_" gradientUnits="userSpaceOnUse" x1="5257.1387" y1="1052.6543" x2="5257.1387" y2="1061.4695" gradientTransform="matrix(-0.9922 0.1242 0.1242 0.9922 5638.4336 -1202.1024)">
	<stop  offset="0" style="stop-color:#5B2D0F"/>
	<stop  offset="1" style="stop-color:#2F170D"/>
	<a:midPointStop  offset="0" style="stop-color:#5B2D0F"/>
	<a:midPointStop  offset="0.5" style="stop-color:#5B2D0F"/>
	<a:midPointStop  offset="1" style="stop-color:#2F170D"/>
</linearGradient>
<path fill="url(#SVGID_12_)" d="M554.1,504c2.7-0.3,4.6-2.8,4.3-5.5c-0.3-2.7-2.8-4.6-5.5-4.3c-2.7,0.3-4.6,2.8-4.3,5.5
	C549,502.4,551.4,504.4,554.1,504L554.1,504z"/>
<linearGradient id="SVGID_13_" gradientUnits="userSpaceOnUse" x1="-1074.4556" y1="1063.7686" x2="-1074.4556" y2="1047.4924" gradientTransform="matrix(0.9922 -0.1242 0.1242 0.9922 1454.623 -677.309)">
	<stop  offset="0" style="stop-color:#FFE0B3"/>
	<stop  offset="1" style="stop-color:#7E1416"/>
	<a:midPointStop  offset="0" style="stop-color:#FFE0B3"/>
	<a:midPointStop  offset="0.5" style="stop-color:#FFE0B3"/>
	<a:midPointStop  offset="1" style="stop-color:#7E1416"/>
</linearGradient>
<path fill="url(#SVGID_13_)" d="M520.8,512.5c-5,0.6-9.6-2.9-10.3-8c-0.6-5,2.9-9.6,8-10.3c5-0.6,9.6,2.9,10.3,8
	S525.8,511.8,520.8,512.5L520.8,512.5z"/>
<text transform="matrix(1 0 0 1 321.5996 410.9487)" fill="#AC208E" font-family="'XtreemMediumDemo'" font-size="199.7808">2</text>
<text transform="matrix(1 0 0 1 315.1553 410.9487)" fill="#FFFFFF" font-family="'XtreemMediumDemo'" font-size="199.7808">2</text>
<rect x="459.4" y="305.3" fill="none" width="258.2" height="178"/>
<text transform="matrix(1 0 0 1 459.374 316.6792)"><tspan x="0" y="0" fill="#FFFFFF" font-family="'MyriadPro-Bold'" font-size="16">Estude o Evangelho-Apocalipse</tspan><tspan x="214.6" y="0" fill="#FFFFFF" font-family="'MyriadPro-Regular'" font-size="16"> </tspan><tspan x="217.7" y="0" fill="#FFFFFF" font-family="'MyriadPro-Bold'" font-size="16">de </tspan><tspan x="0" y="19.2" fill="#FFFFFF" font-family="'MyriadPro-Bold'" font-size="16">Jesus</tspan><tspan x="36.6" y="19.2" fill="#FFFFFF" font-family="'MyriadPro-Regular'" font-size="16">, em Espírito e Verdade, à Luz de </tspan><tspan x="0" y="38.4" fill="#FFFFFF" font-family="'MyriadPro-Regular'" font-size="16">Seu Novo Mandamento. Não podemos </tspan><tspan x="0" y="57.6" fill="#FFFFFF" font-family="'MyriadPro-Regular'" font-size="16">controlar todas as situações, mas é </tspan><tspan x="0" y="76.8" fill="#FFFFFF" font-family="'MyriadPro-Regular'" font-size="16">possível nos preparar para enfrentá-las </tspan><tspan x="0" y="96" fill="#FFFFFF" font-family="'MyriadPro-Regular'" font-size="16">com </tspan><tspan x="31.4" y="96" fill="#FFFFFF" font-family="'MyriadPro-Bold'" font-size="16">sabedoria</tspan><tspan x="99.6" y="96" fill="#FFFFFF" font-family="'MyriadPro-Regular'" font-size="16">.</tspan></text>
<polygon fill="#FFFFFF" points="436,359.6 428.6,377 421.2,394.3 421.2,359.6 421.2,324.9 428.6,342.3 "/>
</svg>
